<svg xmlns:xlink="http://www.w3.org/1999/xlink" width="22" height="22" viewBox="0 0 22 22" fill="currentColor" xmlns="http://www.w3.org/2000/svg" class="header_logo__9b1Md bg-moonlight/80 lg:bg-transparent"><path d="M15.2329 0.561035V15.2278H0.564453C2.27626 19.2019 6.23112 21.9956 10.8353 21.9956C17.0037 21.9956 22.0014 16.9984 22.0014 10.8307C22.0014 6.22707 19.2172 2.27265 15.2329 0.561035Z" fill="#17190F"></path><path d="M7.61248 0.0200195V7.61408H0.0175781C0.234013 11.3914 3.36249 14.3819 7.18946 14.3819C11.0164 14.3819 14.381 11.1652 14.381 7.1911C14.381 3.217 11.3903 0.236431 7.61248 0.0200195Z" fill="#17190F"></path><path d="M3.38426 6.76777C5.25333 6.76777 6.76852 5.25275 6.76852 3.38388C6.76852 1.51502 5.25333 0 3.38426 0C1.51518 0 0 1.51502 0 3.38388C0 5.25275 1.51518 6.76777 3.38426 6.76777Z" fill="#17190F"></path></svg>