<svg xmlns:xlink="http://www.w3.org/1999/xlink" viewBox="0 0 33 16" fill="none" xmlns="http://www.w3.org/2000/svg" class="ml-[0.7em] h-[0.8em] inline-block" width="33"  height="16" ><path d="M1 13.4375C2.84751 11.6186 4.07242 8.43012 5.80981 6.34038C9.36295 2.06666 14.3946 1.31535 18.7498 1.4523C24.4783 1.63244 28.5195 6.6885 32 13.0145" stroke="#FAF4F2" stroke-linecap="round" fill="none"></path><path d="M1 5.44267C3.57344 6.76366 5.38819 9.13554 7.76696 10.8408C11.0508 13.1949 15.0422 14.8663 18.8928 14.3403C24.2179 13.6129 28.2123 8.62293 32 4.4375" stroke="#FAF4F2" stroke-linecap="round" fill="none"></path><path d="M14.7625 7.81534C15.248 8.88851 16.1328 9.75155 17.4262 9.49246C18.566 9.26412 20.1828 8.09174 19.3674 6.78354C17.9937 4.57987 14.8937 5.84098 14.1244 7.88137" stroke="#FAF4F2" stroke-linecap="round" fill="none"></path></svg>