<svg xmlns:xlink="http://www.w3.org/1999/xlink" width="44" height="12" viewBox="0 0 44 12" fill="none" xmlns="http://www.w3.org/2000/svg" class="w-[3rem] opacity-50 mb-4"><g fill="none"><path d="M5.99871 12C9.31279 12 11.9994 9.31371 11.9994 6C11.9994 2.68629 9.31279 0 5.99871 0C2.68464 0 -0.00195312 2.68629 -0.00195312 6C-0.00195312 9.31371 2.68464 12 5.99871 12Z" fill="#FFFFFF"></path><path d="M22.3459 0V6.3452H16C16.1808 9.50137 18.7948 12 21.9924 12C25.1901 12 28.0013 9.31233 28.0013 5.99178C28.0013 2.67123 25.5024 0.180822 22.3459 0Z" fill="#FFFFFF"></path><path d="M40.212 0V8.21111H32C32.9583 10.436 35.1725 12 37.7501 12C41.2034 12 44.0013 9.20239 44.0013 5.74943C44.0013 3.1721 42.4427 0.958238 40.212 0Z" fill="#FFFFFF"></path></g></svg>